  0
SECTION
  2
HEADER
  9
$ACADVER
  1
AC1015
  9
$ACADMAINTVER
 70
     6
  9
$DWGCODEPAGE
  3
ANSI_1252
  9
$INSBASE
 10
0.0
 20
0.0
 30
0.0
  9
$EXTMIN
 10
0.0
 20
0.0
 30
0.0
  9
$EXTMAX
 10
841.0
 20
594.0
 30
0.0
  9
$LIMMIN
 10
0.0
 20
0.0
  9
$LIMMAX
 10
841.0
 20
594.0
  9
$ORTHOMODE
 70
     0
  9
$REGENMODE
 70
     1
  9
$FILLMODE
 70
     1
  9
$QTEXTMODE
 70
     0
  9
$MIRRTEXT
 70
     1
  9
$LTSCALE
 40
1.0
  9
$ATTMODE
 70
     1
  9
$TEXTSIZE
 40
3.5
  9
$TRACEWID
 40
1.0
  9
$TEXTSTYLE
  7
Standard
  9
$CLAYER
  8
0
  9
$CELTYPE
  6
ByLayer
  9
$CECOLOR
 62
   256
  9
$CELTSCALE
 40
1.0
  9
$DISPSILH
 70
     0
  9
$DIMSCALE
 40
1.0
  9
$DIMASZ
 40
3.302
  9
$DIMEXO
 40
1.0
  9
$DIMDLI
 40
3.75
  9
$DIMRND
 40
0.0
  9
$DIMDLE
 40
0.0
  9
$DIMEXE
 40
1.0
  9
$DIMTP
 40
0.0
  9
$DIMTM
 40
0.0
  9
$DIMTXT
 40
3.5
  9
$DIMCEN
 40
2.5
  9
$DIMTSZ
 40
0.0
  9
$DIMTOL
 70
     0
  9
$DIMLIM
 70
     0
  9
$DIMTIH
 70
     1
  9
$DIMTOH
 70
     1
  9
$DIMSE1
 70
     0
  9
$DIMSE2
 70
     0
  9
$DIMTAD
 70
     1
  9
$DIMZIN
 70
     0
  9
$DIMBLK
  1

  9
$DIMASO
 70
     1
  9
$DIMSHO
 70
     1
  9
$DIMPOST
  1

  9
$DIMAPOST
  1

  9
$DIMALT
 70
     0
  9
$DIMALTD
 70
     3
  9
$DIMALTF
 40
0.0393700787
  9
$DIMLFAC
 40
1.0
  9
$DIMTOFL
 70
     1
  9
$DIMTVP
 40
0.0
  9
$DIMTIX
 70
     0
  9
$DIMSOXD
 70
     0
  9
$DIMSAH
 70
     0
  9
$DIMBLK1
  1

  9
$DIMBLK2
  1

  9
$DIMSTYLE
  2
ISO-25
  9
$DIMCLRD
 70
     0
  9
$DIMCLRE
 70
     0
  9
$DIMCLRT
 70
     0
  9
$DIMTFAC
 40
1.0
  9
$DIMGAP
 40
1.524
  9
$DIMJUST
 70
     0
  9
$DIMSD1
 70
     0
  9
$DIMSD2
 70
     0
  9
$DIMTOLJ
 70
     0
  9
$DIMTZIN
 70
     0
  9
$DIMALTZ
 70
     0
  9
$DIMALTTZ
 70
     0
  9
$DIMUPT
 70
     0
  9
$DIMDEC
 70
     3
  9
$DIMTDEC
 70
     3
  9
$DIMALTU
 70
     2
  9
$DIMALTTD
 70
     3
  9
$DIMTXSTY
  7
Standard
  9
$DIMAUNIT
 70
     0
  9
$DIMADEC
 70
     2
  9
$DIMALTRND
 40
0.0
  9
$DIMAZIN
 70
     0
  9
$DIMDSEP
 70
    44
  9
$DIMATFIT
 70
     3
  9
$DIMFRAC
 70
     0
  9
$DIMLDRBLK
  1

  9
$DIMLUNIT
 70
     2
  9
$DIMLWD
 70
    -2
  9
$DIMLWE
 70
    -2
  9
$DIMTMOVE
 70
     0
  9
$LUNITS
 70
     2
  9
$LUPREC
 70
     2
  9
$SKETCHINC
 40
1.0
  9
$FILLETRAD
 40
10.0
  9
$AUNITS
 70
     0
  9
$AUPREC
 70
     2
  9
$MENU
  1
.
  9
$ELEVATION
 40
0.0
  9
$PELEVATION
 40
0.0
  9
$THICKNESS
 40
0.0
  9
$LIMCHECK
 70
     0
  9
$CHAMFERA
 40
10.0
  9
$CHAMFERB
 40
10.0
  9
$CHAMFERC
 40
20.0
  9
$CHAMFERD
 40
0.0
  9
$SKPOLY
 70
     0
  9
$TDCREATE
 40
2455989.359816979
  9
$TDUCREATE
 40
2455989.193150313
  9
$TDUPDATE
 40
2455989.359816991
  9
$TDUUPDATE
 40
2455989.193150324
  9
$TDINDWG
 40
0.0000000116
  9
$TDUSRTIMER
 40
0.0000000116
  9
$USRTIMER
 70
     1
  9
$ANGBASE
 50
0.0
  9
$ANGDIR
 70
     0
  9
$PDMODE
 70
     0
  9
$PDSIZE
 40
-1.0
  9
$PLINEWID
 40
0.0
  9
$SPLFRAME
 70
     0
  9
$SPLINETYPE
 70
     6
  9
$SPLINESEGS
 70
     8
  9
$HANDSEED
  5
88
  9
$SURFTAB1
 70
     6
  9
$SURFTAB2
 70
     6
  9
$SURFTYPE
 70
     6
  9
$SURFU
 70
     6
  9
$SURFV
 70
     6
  9
$UCSBASE
  2

  9
$UCSNAME
  2

  9
$UCSORG
 10
0.0
 20
0.0
 30
0.0
  9
$UCSXDIR
 10
1.0
 20
0.0
 30
0.0
  9
$UCSYDIR
 10
0.0
 20
1.0
 30
0.0
  9
$UCSORTHOREF
  2

  9
$UCSORTHOVIEW
 70
     0
  9
$UCSORGTOP
 10
0.0
 20
0.0
 30
0.0
  9
$UCSORGBOTTOM
 10
0.0
 20
0.0
 30
0.0
  9
$UCSORGLEFT
 10
0.0
 20
0.0
 30
0.0
  9
$UCSORGRIGHT
 10
0.0
 20
0.0
 30
0.0
  9
$UCSORGFRONT
 10
0.0
 20
0.0
 30
0.0
  9
$UCSORGBACK
 10
0.0
 20
0.0
 30
0.0
  9
$PUCSBASE
  2

  9
$PUCSNAME
  2

  9
$PUCSORG
 10
0.0
 20
0.0
 30
0.0
  9
$PUCSXDIR
 10
1.0
 20
0.0
 30
0.0
  9
$PUCSYDIR
 10
0.0
 20
1.0
 30
0.0
  9
$PUCSORTHOREF
  2

  9
$PUCSORTHOVIEW
 70
     0
  9
$PUCSORGTOP
 10
0.0
 20
0.0
 30
0.0
  9
$PUCSORGBOTTOM
 10
0.0
 20
0.0
 30
0.0
  9
$PUCSORGLEFT
 10
0.0
 20
0.0
 30
0.0
  9
$PUCSORGRIGHT
 10
0.0
 20
0.0
 30
0.0
  9
$PUCSORGFRONT
 10
0.0
 20
0.0
 30
0.0
  9
$PUCSORGBACK
 10
0.0
 20
0.0
 30
0.0
  9
$USERI1
 70
     0
  9
$USERI2
 70
     0
  9
$USERI3
 70
     0
  9
$USERI4
 70
     0
  9
$USERI5
 70
     0
  9
$USERR1
 40
0.0
  9
$USERR2
 40
0.0
  9
$USERR3
 40
0.0
  9
$USERR4
 40
0.0
  9
$USERR5
 40
0.0
  9
$WORLDVIEW
 70
     1
  9
$SHADEDGE
 70
     3
  9
$SHADEDIF
 70
    70
  9
$TILEMODE
 70
     1
  9
$MAXACTVP
 70
    64
  9
$PINSBASE
 10
0.0
 20
0.0
 30
0.0
  9
$PLIMCHECK
 70
     0
  9
$PEXTMIN
 10
1.0000000000E+20
 20
1.0000000000E+20
 30
1.0000000000E+20
  9
$PEXTMAX
 10
-1.0000000000E+20
 20
-1.0000000000E+20
 30
-1.0000000000E+20
  9
$PLIMMIN
 10
0.0
 20
0.0
  9
$PLIMMAX
 10
420.0
 20
297.0
  9
$UNITMODE
 70
     0
  9
$VISRETAIN
 70
     1
  9
$PLINEGEN
 70
     0
  9
$PSLTSCALE
 70
     1
  9
$TREEDEPTH
 70
  3020
  9
$CMLSTYLE
  2
Standard
  9
$CMLJUST
 70
     0
  9
$CMLSCALE
 40
20.0
  9
$PROXYGRAPHICS
 70
     1
  9
$MEASUREMENT
 70
     1
  9
$CELWEIGHT
370
    -1
  9
$ENDCAPS
280
     0
  9
$JOINSTYLE
280
     0
  9
$LWDISPLAY
290
     1
  9
$INSUNITS
 70
     4
  9
$HYPERLINKBASE
  1

  9
$STYLESHEET
  1

  9
$XEDIT
290
     1
  9
$CEPSNTYPE
380
     0
  9
$PSTYLEMODE
290
     1
  9
$FINGERPRINTGUID
  2
{393F86D3-3C21-4675-AF0D-6FEF393BE7C8}
  9
$VERSIONGUID
  2
{FAEB1C32-E019-11D5-929B-00C0DF256EC4}
  9
$EXTNAMES
290
     1
  9
$PSVPSCALE
 40
0.0
  9
$OLESTARTUP
290
     0
  0
ENDSEC
  0
SECTION
  2
CLASSES
  0
CLASS
  1
ACDBDICTIONARYWDFLT
  2
AcDbDictionaryWithDefault
  3
ObjectDBX Classes
 90
        0
280
     0
281
     0
  0
CLASS
  1
VISUALSTYLE
  2
AcDbVisualStyle
  3
ObjectDBX Classes
 90
     4095
280
     0
281
     0
  0
CLASS
  1
DICTIONARYVAR
  2
AcDbDictionaryVar
  3
ObjectDBX Classes
 90
        0
280
     0
281
     0
  0
CLASS
  1
ACDBPLACEHOLDER
  2
AcDbPlaceHolder
  3
ObjectDBX Classes
 90
        0
280
     0
281
     0
  0
CLASS
  1
LAYOUT
  2
AcDbLayout
  3
ObjectDBX Classes
 90
        0
280
     0
281
     0
  0
ENDSEC
  0
SECTION
  2
TABLES
  0
TABLE
  2
VPORT
  5
8
330
0
100
AcDbSymbolTable
 70
     1
  0
VPORT
  5
29
330
8
100
AcDbSymbolTableRecord
100
AcDbViewportTableRecord
  2
*Active
 70
     0
 10
0.0
 20
0.0
 11
1.0
 21
1.0
 12
420.5
 22
297.0
 13
0.0
 23
0.0
 14
10.0
 24
10.0
 15
10.0
 25
10.0
 16
0.0
 26
0.0
 36
1.0
 17
0.0
 27
0.0
 37
0.0
 40
594.0
 41
1.4158249158
 42
50.0
 43
0.0
 44
0.0
 50
0.0
 51
0.0
 71
     0
 72
  2000
 73
     1
 74
     3
 75
     0
 76
     0
 77
     0
 78
     0
281
     0
 65
     1
110
0.0
120
0.0
130
0.0
111
1.0
121
0.0
131
0.0
112
0.0
122
1.0
132
0.0
 79
     0
146
0.0
  0
ENDTAB
  0
TABLE
  2
LTYPE
  5
5
330
0
100
AcDbSymbolTable
 70
     6
  0
LTYPE
  5
14
330
5
100
AcDbSymbolTableRecord
100
AcDbLinetypeTableRecord
  2
ByBlock
 70
     0
  3

 72
    65
 73
     0
 40
0.0
  0
LTYPE
  5
15
330
5
100
AcDbSymbolTableRecord
100
AcDbLinetypeTableRecord
  2
ByLayer
 70
     0
  3

 72
    65
 73
     0
 40
0.0
  0
LTYPE
  5
16
330
5
100
AcDbSymbolTableRecord
100
AcDbLinetypeTableRecord
  2
Continuous
 70
     0
  3
Solid line
 72
    65
 73
     0
 40
0.0
  0
LTYPE
  5
3B
330
5
100
AcDbSymbolTableRecord
100
AcDbLinetypeTableRecord
  2
HIDDEN
 70
     0
  3
Hidden __ __ __ __ __ __ __ __ __ __ __ __ __ __
 72
    65
 73
     2
 40
1.905
 49
1.27
 74
     0
 49
-0.635
 74
     0
  0
LTYPE
  5
3C
330
5
100
AcDbSymbolTableRecord
100
AcDbLinetypeTableRecord
  2
PHANTOM
 70
     0
  3
Phantom ______  __  __  ______  __  __  ______
 72
    65
 73
     6
 40
12.7
 49
6.35
 74
     0
 49
-1.27
 74
     0
 49
1.27
 74
     0
 49
-1.27
 74
     0
 49
1.27
 74
     0
 49
-1.27
 74
     0
  0
LTYPE
  5
3D
330
5
100
AcDbSymbolTableRecord
100
AcDbLinetypeTableRecord
  2
CENTER
 70
     0
  3
Center ____ _ ____ _ ____ _ ____ _ ____ _ ____
 72
    65
 73
     4
 40
10.16
 49
6.35
 74
     0
 49
-1.27
 74
     0
 49
1.27
 74
     0
 49
-1.27
 74
     0
  0
LTYPE
  5
3E
330
5
100
AcDbSymbolTableRecord
100
AcDbLinetypeTableRecord
  2
CENTERX2
 70
     0
  3
Center (2x) ________  __  ________  __  _____
 72
    65
 73
     4
 40
20.32
 49
12.7
 74
     0
 49
-2.54
 74
     0
 49
2.54
 74
     0
 49
-2.54
 74
     0
  0
LTYPE
  5
3F
330
5
100
AcDbSymbolTableRecord
100
AcDbLinetypeTableRecord
  2
DOT2
 70
     0
  3
Dot (.5x) ........................................
 72
    65
 73
     2
 40
0.635
 49
0.0
 74
     0
 49
-0.635
 74
     0
  0
ENDTAB
  0
TABLE
  2
LAYER
  5
2
330
0
100
AcDbSymbolTable
 70
     1
  0
LAYER
  5
10
330
2
100
AcDbSymbolTableRecord
100
AcDbLayerTableRecord
  2
0
 70
     0
 62
     7
  6
Continuous
370
    -3
390
F
  0
ENDTAB
  0
TABLE
  2
STYLE
  5
3
330
0
100
AcDbSymbolTable
 70
     1
  0
STYLE
  5
11
330
3
100
AcDbSymbolTableRecord
100
AcDbTextStyleTableRecord
  2
Standard
 70
     0
 40
0.0
 41
1.0
 50
0.0
 71
     0
 42
2.5
  3
txt
  4

  0
ENDTAB
  0
TABLE
  2
VIEW
  5
6
330
0
100
AcDbSymbolTable
 70
     0
  0
ENDTAB
  0
TABLE
  2
UCS
  5
7
330
0
100
AcDbSymbolTable
 70
     0
  0
ENDTAB
  0
TABLE
  2
APPID
  5
9
330
0
100
AcDbSymbolTable
 70
     1
  0
APPID
  5
12
330
9
100
AcDbSymbolTableRecord
100
AcDbRegAppTableRecord
  2
ACAD
 70
     0
  0
ENDTAB
  0
TABLE
  2
DIMSTYLE
  5
A
330
0
100
AcDbSymbolTable
 70
     1
100
AcDbDimStyleTable
  0
DIMSTYLE
105
27
330
A
100
AcDbSymbolTableRecord
100
AcDbDimStyleTableRecord
  2
ISO-25
 70
     0
 41
2.5
 42
0.625
 43
3.75
 44
1.25
 73
     0
 74
     0
 77
     1
 78
     8
140
2.5
141
2.5
143
0.0393700787
147
0.625
171
     3
172
     1
271
     2
272
     2
274
     3
278
    44
283
     0
284
     8
340
11
  0
ENDTAB
  0
TABLE
  2
BLOCK_RECORD
  5
1
330
0
100
AcDbSymbolTable
 70
     1
  0
BLOCK_RECORD
  5
1F
330
1
100
AcDbSymbolTableRecord
100
AcDbBlockTableRecord
  2
*Model_Space
340
22
  0
BLOCK_RECORD
  5
1B
330
1
100
AcDbSymbolTableRecord
100
AcDbBlockTableRecord
  2
*Paper_Space
340
1E
  0
BLOCK_RECORD
  5
23
330
1
100
AcDbSymbolTableRecord
100
AcDbBlockTableRecord
  2
*Paper_Space0
340
26
  0
ENDTAB
  0
ENDSEC
  0
SECTION
  2
BLOCKS
  0
BLOCK
  5
20
330
1F
100
AcDbEntity
  8
0
100
AcDbBlockBegin
  2
*Model_Space
 70
     0
 10
0.0
 20
0.0
 30
0.0
  3
*Model_Space
  1

  0
ENDBLK
  5
21
330
1F
100
AcDbEntity
  8
0
100
AcDbBlockEnd
  0
BLOCK
  5
1C
330
1B
100
AcDbEntity
 67
     1
  8
0
100
AcDbBlockBegin
  2
*Paper_Space
 70
     0
 10
0.0
 20
0.0
 30
0.0
  3
*Paper_Space
  1

  0
ENDBLK
  5
1D
330
1B
100
AcDbEntity
 67
     1
  8
0
100
AcDbBlockEnd
  0
BLOCK
  5
24
330
23
100
AcDbEntity
  8
0
100
AcDbBlockBegin
  2
*Paper_Space0
 70
     0
 10
0.0
 20
0.0
 30
0.0
  3
*Paper_Space0
  1

  0
ENDBLK
  5
25
330
23
100
AcDbEntity
  8
0
100
AcDbBlockEnd
  0
ENDSEC
  0
SECTION
  2
ENTITIES
  0
LINE
  5
40
330
1F
100
AcDbEntity
  8
0
  6
Continuous
 62
     7
370
    15
100
AcDbLine
 10
414.317061864
 20
448.1775315338
 30
0.0
 11
395.317061864
 21
448.1775315338
 31
0.0
  0
LINE
  5
41
330
1F
100
AcDbEntity
  8
0
  6
Continuous
 62
     7
370
    15
100
AcDbLine
 10
414.317061864
 20
498.1775315338
 30
0.0
 11
414.317061864
 21
448.1775315338
 31
0.0
  0
LINE
  5
42
330
1F
100
AcDbEntity
  8
0
  6
Continuous
 62
     7
370
    15
100
AcDbLine
 10
395.317061864
 20
498.1775315338
 30
0.0
 11
414.317061864
 21
498.1775315338
 31
0.0
  0
LINE
  5
43
330
1F
100
AcDbEntity
  8
0
  6
Continuous
 62
     7
370
    15
100
AcDbLine
 10
395.317061864
 20
448.1775315338
 30
0.0
 11
395.317061864
 21
498.1775315338
 31
0.0
  0
LINE
  5
44
330
1F
100
AcDbEntity
  8
0
  6
Continuous
 62
     7
370
    15
100
AcDbLine
 10
322.1673959048
 20
521.327197493
 30
0.0
 11
322.1673959048
 21
540.327197493
 31
0.0
  0
LINE
  5
45
330
1F
100
AcDbEntity
  8
0
  6
Continuous
 62
     7
370
    15
100
AcDbLine
 10
372.1673959048
 20
521.327197493
 30
0.0
 11
322.1673959048
 21
521.327197493
 31
0.0
  0
LINE
  5
46
330
1F
100
AcDbEntity
  8
0
  6
Continuous
 62
     7
370
    15
100
AcDbLine
 10
372.1673959048
 20
540.327197493
 30
0.0
 11
372.1673959048
 21
521.327197493
 31
0.0
  0
LINE
  5
47
330
1F
100
AcDbEntity
  8
0
  6
Continuous
 62
     7
370
    15
100
AcDbLine
 10
322.1673959048
 20
540.327197493
 30
0.0
 11
372.1673959048
 21
540.327197493
 31
0.0
  0
LINE
  5
48
330
1F
100
AcDbEntity
  8
0
  6
Continuous
 62
     7
370
    15
100
AcDbLine
 10
437.4667278232
 20
521.327197493
 30
0.0
 11
437.4667278232
 21
540.327197493
 31
0.0
  0
LINE
  5
49
330
1F
100
AcDbEntity
  8
0
  6
Continuous
 62
     7
370
    15
100
AcDbLine
 10
487.4667278232
 20
521.327197493
 30
0.0
 11
437.4667278232
 21
521.327197493
 31
0.0
  0
LINE
  5
4A
330
1F
100
AcDbEntity
  8
0
  6
Continuous
 62
     7
370
    15
100
AcDbLine
 10
487.4667278232
 20
540.327197493
 30
0.0
 11
487.4667278232
 21
521.327197493
 31
0.0
  0
LINE
  5
4B
330
1F
100
AcDbEntity
  8
0
  6
Continuous
 62
     7
370
    15
100
AcDbLine
 10
437.4667278232
 20
540.327197493
 30
0.0
 11
487.4667278232
 21
540.327197493
 31
0.0
  0
LINE
  5
4C
330
1F
100
AcDbEntity
  8
0
  6
Continuous
 62
     7
370
    15
100
AcDbLine
 10
414.317061864
 20
563.4768634522
 30
0.0
 11
395.317061864
 21
563.4768634522
 31
0.0
  0
LINE
  5
4D
330
1F
100
AcDbEntity
  8
0
  6
Continuous
 62
     7
370
    15
100
AcDbLine
 10
395.317061864
 20
613.4768634522
 30
0.0
 11
414.317061864
 21
613.4768634522
 31
0.0
  0
LINE
  5
4E
330
1F
100
AcDbEntity
  8
0
  6
Continuous
 62
     7
370
    15
100
AcDbLine
 10
395.317061864
 20
563.4768634522
 30
0.0
 11
395.317061864
 21
613.4768634522
 31
0.0
  0
LINE
  5
4F
330
1F
100
AcDbEntity
  8
0
  6
Continuous
 62
     7
370
    15
100
AcDbLine
 10
414.317061864
 20
613.4768634522
 30
0.0
 11
414.317061864
 21
563.4768634522
 31
0.0
  0
CIRCLE
  5
50
330
1F
100
AcDbEntity
  8
0
  6
Continuous
 62
     7
370
    15
100
AcDbCircle
 10
404.817061864
 20
530.827197493
 30
0.0
 40
174.9999999999999
  0
SPLINE
  5
51
330
1F
100
AcDbEntity
  8
0
  6
Continuous
 62
     7
370
    15
100
AcDbSpline
210
0.0
220
0.0
230
1.0
 70
     8
 71
     3
 72
    45
 73
    41
 74
     0
 42
0.00000001
 43
0.00000001
 40
0.0
 40
0.0
 40
0.0
 40
0.0
 40
0.0240858607164745
 40
0.0498173784540762
 40
0.0770111076810723
 40
0.1054697004560656
 40
0.1349862612152975
 40
0.1653471657094142
 40
0.1963339452133206
 40
0.2395542485916813
 40
0.2829529680051284
 40
0.3259389571117131
 40
0.3679170974116494
 40
0.4090931464081571
 40
0.4479800410280276
 40
0.4843318314910032
 40
0.5182611766261245
 40
0.5498967869177628
 40
0.5793694542733174
 40
0.6068127374422718
 40
0.6364479601133746
 40
0.663733572600597
 40
0.6889062962074927
 40
0.7122162998733615
 40
0.7339294597336462
 40
0.7543286548943969
 40
0.7770896237039984
 40
0.7989539401503132
 40
0.820443871847762
 40
0.8420709332825244
 40
0.857299704531034
 40
0.8729184479274501
 40
0.8886866243317826
 40
0.9042958293800688
 40
0.919612775377109
 40
0.9348010753944752
 40
0.9501290731659076
 40
0.9658960112819991
 40
0.9824157388792356
 40
1.0
 40
1.0
 40
1.0
 40
1.0
 10
500.693439757365
 20
312.5722391266963
 30
0.0
 10
500.2310251581508
 20
308.6086625346701
 30
0.0
 10
499.2746016629343
 20
300.4106995288626
 30
0.0
 10
497.1085050366594
 20
287.8337888026368
 30
0.0
 10
494.4444310311039
 20
274.6175919877902
 30
0.0
 10
491.2802669564807
 20
260.8670378665444
 30
0.0
 10
487.6981697841003
 20
246.6785966596119
 30
0.0
 10
483.7563514509375
 20
232.1515662768499
 30
0.0
 10
478.9796009924572
 20
215.5010692106016
 30
0.0
 10
473.3458882822732
 20
196.851334688344
 30
0.0
 10
466.894566451256
 20
176.3741625921855
 30
0.0
 10
460.3403843907695
 20
156.1460578074272
 30
0.0
 10
453.8081906027526
 20
136.2982199482802
 30
0.0
 10
447.4658066362863
 20
117.1027970957959
 30
0.0
 10
441.475418452843
 20
98.77264701127164
 30
0.0
 10
435.9714274380847
 20
81.54675711360827
 30
0.0
 10
430.967884230006
 20
65.42249569874326
 30
0.0
 10
426.4664509720748
 20
50.3363961055712
 30
0.0
 10
422.4663793039713
 20
36.22316499985309
 30
0.0
 10
418.7942879324285
 20
22.36337675933264
 30
0.0
 10
415.5223787932938
 20
8.7750723325567
 30
0.0
 10
412.7466794541219
 20
-4.540099741090319
 30
0.0
 10
410.6525089408652
 20
-16.91886430919914
 30
0.0
 10
409.2407101945464
 20
-28.46562695917865
 30
0.0
 10
408.5129334000307
 20
-39.28470778886922
 30
0.0
 10
408.4688321344132
 20
-50.03852969458556
 30
0.0
 10
409.2536439084827
 20
-60.79535745638193
 30
0.0
 10
411.0494078038959
 20
-71.61540766830527
 30
0.0
 10
413.8107621756058
 20
-82.03539991069519
 30
0.0
 10
417.1313321136688
 20
-91.12588004637229
 30
0.0
 10
420.6774165971242
 20
-99.06562288785409
 30
0.0
 10
424.1678516864037
 20
-105.9580818159534
 30
0.0
 10
428.1541433296704
 20
-112.6544903304067
 30
0.0
 10
432.748932411187
 20
-118.8989332617403
 30
0.0
 10
438.0806691793459
 20
-124.4064265828131
 30
0.0
 10
444.1291402830314
 20
-129.0416764421745
 30
0.0
 10
450.8792222449771
 20
-132.7439686693445
 30
0.0
 10
458.3224681237475
 20
-135.4290862882382
 30
0.0
 10
466.4479679044313
 20
-137.1277212294865
 30
0.0
 10
472.1023930351338
 20
-137.325687859419
 30
0.0
 10
475.017855176769
 20
-137.4277608733036
 30
0.0
  0
LINE
  5
52
330
1F
100
AcDbEntity
  8
0
  6
Continuous
 62
     7
370
    15
100
AcDbLine
 10
518.0437737981
 20
312.5722391267
 30
0.0
 11
500.6934397574
 21
312.5722391267
 31
0.0
  0
LINE
  5
53
330
1F
100
AcDbEntity
  8
0
  6
Continuous
 62
     7
370
    15
100
AcDbLine
 10
518.0437737981
 20
331.5722391267
 30
0.0
 11
518.0437737981
 21
312.5722391267
 31
0.0
  0
LINE
  5
54
330
1F
100
AcDbEntity
  8
0
  6
Continuous
 62
     7
370
    15
100
AcDbLine
 10
568.0437737981
 20
331.5722391267
 30
0.0
 11
518.0437737981
 21
331.5722391267
 31
0.0
  0
LINE
  5
55
330
1F
100
AcDbEntity
  8
0
  6
Continuous
 62
     7
370
    15
100
AcDbLine
 10
568.0437737981
 20
312.5722391267
 30
0.0
 11
568.0437737981
 21
331.5722391267
 31
0.0
  0
LINE
  5
56
330
1F
100
AcDbEntity
  8
0
  6
Continuous
 62
     7
370
    15
100
AcDbLine
 10
633.3431057166
 20
312.5722391267
 30
0.0
 11
568.0437737981
 21
312.5722391267
 31
0.0
  0
LINE
  5
57
330
1F
100
AcDbEntity
  8
0
  6
Continuous
 62
     7
370
    15
100
AcDbLine
 10
633.3431057166
 20
331.5722391267
 30
0.0
 11
633.3431057166
 21
312.5722391267
 31
0.0
  0
LINE
  5
58
330
1F
100
AcDbEntity
  8
0
  6
Continuous
 62
     7
370
    15
100
AcDbLine
 10
683.3431057166
 20
331.5722391267
 30
0.0
 11
633.3431057166
 21
331.5722391267
 31
0.0
  0
LINE
  5
59
330
1F
100
AcDbEntity
  8
0
  6
Continuous
 62
     7
370
    15
100
AcDbLine
 10
683.3431057166
 20
312.5722391267
 30
0.0
 11
683.3431057166
 21
331.5722391267
 31
0.0
  0
LINE
  5
5A
330
1F
100
AcDbEntity
  8
0
  6
Continuous
 62
     7
370
    15
100
AcDbLine
 10
700.6934397574
 20
312.5722391267
 30
0.0
 11
683.3431057166
 21
312.5722391267
 31
0.0
  0
SPLINE
  5
5B
330
1F
100
AcDbEntity
  8
0
  6
Continuous
 62
     7
370
    15
100
AcDbSpline
210
0.0
220
0.0
230
1.0
 70
     8
 71
     3
 72
    45
 73
    41
 74
     0
 42
0.00000001
 43
0.00000001
 40
0.0
 40
0.0
 40
0.0
 40
0.0
 40
0.0175842196380793
 40
0.0341039082639505
 40
0.0498708091845677
 40
0.0651987707960213
 40
0.0803870349829672
 40
0.0957039448461008
 40
0.1113131130710177
 40
0.1270812522769547
 40
0.1426999588274998
 40
0.157928694150114
 40
0.1779588494849972
 40
0.1978395690631339
 40
0.217974714518961
 40
0.2387783943701793
 40
0.2606606079260128
 40
0.2840156564227682
 40
0.3092155036886894
 40
0.3305377387299231
 40
0.3533727573628235
 40
0.3778719064958702
 40
0.4041801460481091
 40
0.4324372121169026
 40
0.4627786794588539
 40
0.4953368826076818
 40
0.5302416867396287
 40
0.5676211168252893
 40
0.607511072257809
 40
0.6494475143910781
 40
0.6927954969157463
 40
0.7369211929163736
 40
0.7811939417267735
 40
0.8156753789721874
 40
0.8495615858308366
 40
0.8825570455200834
 40
0.9143723482621725
 40
0.9447267822409717
 40
0.973352320915021
 40
0.9999999999999999
 40
0.9999999999999999
 40
0.9999999999999999
 40
0.9999999999999999
 10
726.369024337961
 20
-137.4277608733036
 30
0.0
 10
729.284486479564
 20
-137.3256878596554
 30
0.0
 10
734.9389116102034
 20
-137.1277212301815
 30
0.0
 10
743.0644113913303
 20
-135.4290862857019
 30
0.0
 10
750.5076572685272
 20
-132.7439686782855
 30
0.0
 10
757.2577392361227
 20
-129.0416764098983
 30
0.0
 10
763.3062103189641
 20
-124.4064267026038
 30
0.0
 10
768.6379471659253
 20
-118.8989328066402
 30
0.0
 10
773.2327359463313
 20
-112.6544920720145
 30
0.0
 10
777.2190287251813
 20
-105.9580752730764
 30
0.0
 10
780.7094596419593
 20
-99.06564678486507
 30
0.0
 10
784.1476496339614
 20
-91.36739685799384
 30
0.0
 10
787.3111568778004
 20
-82.78776538668082
 30
0.0
 10
789.9622111935207
 20
-73.18832570102191
 30
0.0
 10
791.7892390614887
 20
-63.26758574920483
 30
0.0
 10
792.7916807804171
 20
-52.89759865629318
 30
0.0
 10
792.9715351211479
 20
-41.94891196134887
 30
0.0
 10
792.3324675676681
 20
-30.29004877918257
 30
0.0
 10
790.9945389141873
 20
-18.78633657737522
 30
0.0
 10
789.155209030549
 20
-7.443140199611175
 30
0.0
 10
786.953661265765
 20
3.716634702026267
 30
0.0
 10
784.251491715062
 20
15.61385822189104
 30
0.0
 10
781.048563385376
 20
28.31426170134283
 30
0.0
 10
777.3446882095285
 20
41.88336969251743
 30
0.0
 10
773.1395530256415
 20
56.38667579678183
 30
0.0
 10
768.4328289502049
 20
71.8896047993014
 30
0.0
 10
763.2240037127835
 20
88.45747385509931
 30
0.0
 10
757.5177704939147
 20
106.1414505819167
 30
0.0
 10
751.347208351966
 20
124.8990933347278
 30
0.0
 10
744.8428215546868
 20
144.5876603132795
 30
0.0
 10
738.1722976990237
 20
164.9602974393131
 30
0.0
 10
731.5115699629877
 20
185.7430703407503
 30
0.0
 10
725.4927432827023
 20
205.1884985395949
 30
0.0
 10
720.200773887721
 20
223.0817117794684
 30
0.0
 10
715.664680617799
 20
239.2489759522217
 30
0.0
 10
711.525496037719
 20
255.0663957710304
 30
0.0
 10
707.861647609249
 20
270.4009591459217
 30
0.0
 10
704.7811285996439
 20
285.1232508391554
 30
0.0
 10
702.2878522817141
 20
299.0934417790788
 30
0.0
 10
701.2120790168793
 20
308.1877819245892
 30
0.0
 10
700.693439757365
 20
312.5722391266963
 30
0.0
  0
LINE
  5
5C
330
1F
100
AcDbEntity
  8
0
  6
Continuous
 62
     7
370
    15
100
AcDbLine
 10
610.1934397574
 20
-137.4277608733
 30
0.0
 11
726.369024338
 21
-137.4277608733
 31
0.0
  0
LINE
  5
5D
330
1F
100
AcDbEntity
  8
0
  6
Continuous
 62
     7
370
    15
100
AcDbLine
 10
623.4566319224
 20
302.5722391267
 30
0.0
 11
623.4566319224
 21
-111.9626233881
 31
0.0
  0
LINE
  5
5E
330
1F
100
AcDbEntity
  8
0
  6
Continuous
 62
     7
370
    15
100
AcDbLine
 10
676.3260486186
 20
302.5722391267
 30
0.0
 11
623.4566319224
 21
302.5722391267
 31
0.0
  0
LINE
  5
5F
330
1F
100
AcDbEntity
  8
0
  6
Continuous
 62
     7
370
    15
100
AcDbLine
 10
475.0178551768
 20
-137.4277608733
 30
0.0
 11
591.1934397574
 21
-137.4277608733
 31
0.0
  0
LINE
  5
60
330
1F
100
AcDbEntity
  8
0
  6
Continuous
 62
     7
370
    15
100
AcDbLine
 10
623.4566319224
 20
-111.9626233881
 30
0.0
 11
726.369024338
 21
-112.0709783205
 31
0.0
  0
LINE
  5
61
330
1F
100
AcDbEntity
  8
0
  6
Continuous
 62
     7
370
    15
100
AcDbLine
 10
610.1934397574
 20
-137.4277608733
 30
0.0
 11
610.1934397574
 21
87.5722391267
 31
0.0
  0
LINE
  5
62
330
1F
100
AcDbEntity
  8
0
  6
Continuous
 62
     7
370
    15
100
AcDbLine
 10
610.1934397574
 20
87.5722391267
 30
0.0
 11
591.1934397574
 21
87.5722391267
 31
0.0
  0
LINE
  5
63
330
1F
100
AcDbEntity
  8
0
  6
Continuous
 62
     7
370
    15
100
AcDbLine
 10
591.1934397574
 20
87.5722391267
 30
0.0
 11
591.1934397574
 21
-137.4277608733
 31
0.0
  0
LINE
  5
64
330
1F
100
AcDbEntity
  8
0
  6
Continuous
 62
     7
370
    15
100
AcDbLine
 10
577.9302475923
 20
302.5722391267
 30
0.0
 11
525.0608308961
 21
302.5722391267
 31
0.0
  0
LINE
  5
65
330
1F
100
AcDbEntity
  8
0
  6
Continuous
 62
     7
370
    15
100
AcDbLine
 10
577.9302475923
 20
-111.9626233881
 30
0.0
 11
577.9302475923
 21
302.5722391267
 31
0.0
  0
LINE
  5
66
330
1F
100
AcDbEntity
  8
0
  6
Continuous
 62
     7
370
    15
100
AcDbLine
 10
475.0178523042
 20
-112.0709783205
 30
0.0
 11
577.9302475923
 21
-111.9626233881
 31
0.0
  0
SPLINE
  5
67
330
1F
100
AcDbEntity
  8
0
  6
Continuous
 62
     7
370
    15
100
AcDbSpline
210
0.0
220
0.0
230
1.0
 70
     8
 71
     3
 72
    45
 73
    41
 74
     0
 42
0.00000001
 43
0.00000001
 40
0.0
 40
0.0
 40
0.0
 40
0.0
 40
0.0356251580845208
 40
0.0727985254807079
 40
0.1114413253523764
 40
0.1513620138431257
 40
0.1922964880642493
 40
0.2339328298610927
 40
0.2834357491203808
 40
0.3328302074408414
 40
0.3814762731807668
 40
0.4287204183541158
 40
0.4747263815432736
 40
0.5178758268994132
 40
0.5579678926319726
 40
0.5951762740161337
 40
0.6296115232618983
 40
0.6613891554653164
 40
0.690627712896828
 40
0.7174438676849019
 40
0.7419601190517935
 40
0.7643060191048997
 40
0.7846220226093807
 40
0.803078236577776
 40
0.8198587349399152
 40
0.8352018541399576
 40
0.8544651823965909
 40
0.8723711216650564
 40
0.8898705974060973
 40
0.9079034293096847
 40
0.9188209354739235
 40
0.9299699614368914
 40
0.9397052413509408
 40
0.9475604057470135
 40
0.953308723383214
 40
0.9583642039038406
 40
0.9667147568391011
 40
0.9762852701863051
 40
0.9873125132079597
 40
0.9999999999999999
 40
0.9999999999999999
 40
0.9999999999999999
 40
0.9999999999999999
 10
525.0608308961432
 20
302.5722391266962
 30
0.0
 10
524.5183790645455
 20
297.335321348493
 30
0.0
 10
523.4099013592414
 20
286.633898174106
 30
0.0
 10
520.6981833052863
 20
270.3840245900758
 30
0.0
 10
517.3645094470471
 20
253.610333995625
 30
0.0
 10
513.4222406267071
 20
236.3971496970179
 30
0.0
 10
509.0012449253836
 20
218.8456621889759
 30
0.0
 10
503.9050462476562
 20
200.0073871810938
 30
0.0
 10
498.1863892876736
 20
180.0450770280528
 30
0.0
 10
491.9388819127332
 20
159.1587722286846
 30
0.0
 10
485.6270638632
 20
138.6409516532434
 30
0.0
 10
479.3778669448742
 20
118.6280019884879
 30
0.0
 10
473.362314617517
 20
99.39294221596256
 30
0.0
 10
467.7330905874642
 20
81.14431877744124
 30
0.0
 10
462.6191194646623
 20
64.09754255195647
 30
0.0
 10
458.0211485773324
 20
48.24088282789679
 30
0.0
 10
453.9386885609696
 20
33.51480018238723
 30
0.0
 10
450.3703055781741
 20
19.8695952797332
 30
0.0
 10
447.311114043389
 20
7.256760156621967
 30
0.0
 10
444.7559445421034
 20
-4.371738860152908
 30
0.0
 10
442.6972212353292
 20
-15.06313592286906
 30
0.0
 10
441.1198499543093
 20
-24.86480495907534
 30
0.0
 10
440.0102120506085
 20
-33.82922700425434
 30
0.0
 10
439.3425113129548
 20
-42.01290884576908
 30
0.0
 10
439.0891258636972
 20
-49.48536908635631
 30
0.0
 10
439.2401508572196
 20
-57.08015767646963
 30
0.0
 10
439.9287925483119
 20
-64.81809591397852
 30
0.0
 10
441.3517546802435
 20
-72.78038558861971
 30
0.0
 10
443.4428304620104
 20
-80.40498347322168
 30
0.0
 10
445.8281672547734
 20
-86.84917807512488
 30
0.0
 10
448.2200971665414
 20
-92.27128222685005
 30
0.0
 10
450.2774755246552
 20
-96.49692572883578
 30
0.0
 10
452.3150217392119
 20
-100.2262959792336
 30
0.0
 10
454.2051889371962
 20
-103.1146899812677
 30
0.0
 10
455.9288011641169
 20
-105.2759969159767
 30
0.0
 10
458.0099988390013
 20
-107.2064306018624
 30
0.0
 10
460.8551057606744
 20
-109.0981753363154
 30
0.0
 10
464.8124047398604
 20
-110.7714798618037
 30
0.0
 10
469.6286030698781
 20
-111.9233030713542
 30
0.0
 10
473.1395043667619
 20
-112.0195081643222
 30
0.0
 10
475.0178523041964
 20
-112.0709783204635
 30
0.0
  0
SPLINE
  5
68
330
1F
100
AcDbEntity
  8
0
  6
Continuous
 62
     7
370
    15
100
AcDbSpline
210
0.0
220
0.0
230
1.0
 70
     8
 71
     3
 72
    45
 73
    41
 74
     0
 42
0.00000001
 43
0.00000001
 40
0.0
 40
0.0
 40
0.0
 40
0.0
 40
0.012042388304773
 40
0.0222988543898391
 40
0.0313127048232042
 40
0.0397164156865964
 40
0.048138551949475
 40
0.0571521544516641
 40
0.0679226924511508
 40
0.0807062121265395
 40
0.094774943684048
 40
0.1086790279947583
 40
0.124020707279663
 40
0.1389421829603817
 40
0.1538868809660517
 40
0.1693178199835668
 40
0.1856854572960193
 40
0.2033794431974288
 40
0.2227485139399086
 40
0.2440833769102922
 40
0.2651101855575007
 40
0.2880650658543998
 40
0.3130795742968431
 40
0.3402780468252488
 40
0.369778715010498
 40
0.4016954967504463
 40
0.4361451315067685
 40
0.4732364137274113
 40
0.5130874965958724
 40
0.5558305863607346
 40
0.6011714323728509
 40
0.6484662346018486
 40
0.6970033489679494
 40
0.7461269918722061
 40
0.791120731300042
 40
0.8355903975171585
 40
0.8790882924279833
 40
0.921205721103606
 40
0.9615935390114007
 40
0.9999999999999999
 40
0.9999999999999999
 40
0.9999999999999999
 40
0.9999999999999999
 10
726.369024337961
 20
-112.0709783204631
 30
0.0
 10
728.1655440642129
 20
-112.0119243307591
 30
0.0
 10
731.4921542656365
 20
-111.9025742347297
 30
0.0
 10
736.0852224592979
 20
-110.9616751138651
 30
0.0
 10
739.9817137388053
 20
-109.5683225516716
 30
0.0
 10
743.3729489575032
 20
-107.7098064761864
 30
0.0
 10
746.4374565880762
 20
-105.3541429140308
 30
0.0
 10
749.3624949101356
 20
-102.3144626040489
 30
0.0
 10
752.2171183108777
 20
-98.37510133397775
 30
0.0
 10
755.0819051489183
 20
-93.5492593461249
 30
0.0
 10
757.8199726241777
 20
-88.12370550857057
 30
0.0
 10
760.4570561149975
 20
-82.22897954144076
 30
0.0
 10
762.7705093164742
 20
-76.06072285672461
 30
0.0
 10
764.6815440466421
 20
-69.59379394085185
 30
0.0
 10
766.1050220860773
 20
-62.98829977684339
 30
0.0
 10
767.0582447763286
 20
-56.08122883529643
 30
0.0
 10
767.5389019596097
 20
-48.71499152526798
 30
0.0
 10
767.5256989756718
 20
-40.74677113986319
 30
0.0
 10
766.9887590256046
 20
-32.05566950692035
 30
0.0
 10
765.9450919972646
 20
-22.91162928673734
 30
0.0
 10
764.4345075935777
 20
-13.29312889653617
 30
0.0
 10
762.4902498540049
 20
-3.194237662760224
 30
0.0
 10
760.0564505458798
 20
7.741901566540365
 30
0.0
 10
757.1236893868696
 20
19.56242242876921
 30
0.0
 10
753.6898417854139
 20
32.31550285364043
 30
0.0
 10
749.7524754510547
 20
46.05001182840473
 30
0.0
 10
745.3104872744714
 20
60.81513928297716
 30
0.0
 10
740.3650543102265
 20
76.66258077898472
 30
0.0
 10
734.9174394935496
 20
93.64743362533015
 30
0.0
 10
728.979885992087
 20
111.7657928803655
 30
0.0
 10
722.6505241097645
 20
130.923010272472
 30
0.0
 10
716.0803339558131
 20
150.9100839567548
 30
0.0
 10
709.4396880509493
 20
171.467269356001
 30
0.0
 10
703.0796518799214
 20
191.754111802127
 30
0.0
 10
697.1369854681346
 20
211.5352676990674
 30
0.0
 10
691.7253466941995
 20
230.5982558433314
 30
0.0
 10
686.790362263755
 20
249.3486573514159
 30
0.0
 10
682.4895787831542
 20
267.6288649363701
 30
0.0
 10
678.8556094792195
 20
285.2864952962777
 30
0.0
 10
677.1549809325608
 20
296.9077335379661
 30
0.0
 10
676.3260486185887
 20
302.5722391266966
 30
0.0
  0
LINE
  5
69
330
1F
100
AcDbEntity
  8
0
  6
Continuous
 62
     7
370
    15
100
AcDbLine
 10
18.1365415869
 20
-76.3923049392
 30
0.0
 11
121.048936875
 21
-76.2839500068
 31
0.0
  0
LINE
  5
6A
330
1F
100
AcDbEntity
  8
0
  6
Continuous
 62
     7
370
    15
100
AcDbLine
 10
121.048936875
 20
-76.2839500068
 30
0.0
 11
121.048936875
 21
338.250912508
 31
0.0
  0
LINE
  5
6B
330
1F
100
AcDbEntity
  8
0
  6
Continuous
 62
     7
370
    15
100
AcDbLine
 10
121.048936875
 20
338.250912508
 30
0.0
 11
68.1795201788
 21
338.250912508
 31
0.0
  0
SPLINE
  5
6C
330
1F
100
AcDbEntity
  8
0
  6
Continuous
 62
     7
370
    15
100
AcDbSpline
210
0.0
220
0.0
230
1.0
 70
     8
 71
     3
 72
    45
 73
    41
 74
     0
 42
0.00000001
 43
0.00000001
 40
0.0
 40
0.0
 40
0.0
 40
0.0
 40
0.0356251580845208
 40
0.0727985254807079
 40
0.1114413253523764
 40
0.1513620138431257
 40
0.1922964880642493
 40
0.2339328298610927
 40
0.2834357491203808
 40
0.3328302074408414
 40
0.3814762731807668
 40
0.4287204183541159
 40
0.4747263815432736
 40
0.5178758268994132
 40
0.5579678926319726
 40
0.5951762740161337
 40
0.6296115232618983
 40
0.6613891554653165
 40
0.6906277128968281
 40
0.717443867684902
 40
0.7419601190517936
 40
0.7643060191048999
 40
0.784622022609381
 40
0.8030782365777761
 40
0.8198587349399153
 40
0.8352018541399578
 40
0.8544651823965911
 40
0.8723711216650566
 40
0.8898705974060974
 40
0.9079034293096848
 40
0.9188209354739236
 40
0.9299699614368915
 40
0.9397052413509409
 40
0.9475604057470136
 40
0.953308723383214
 40
0.9583642039038407
 40
0.9667147568391012
 40
0.9762852701863052
 40
0.9873125132079598
 40
0.9999999999999999
 40
0.9999999999999999
 40
0.9999999999999999
 40
0.9999999999999999
 10
68.17952017881306
 20
338.2509125079907
 30
0.0
 10
67.63706834721533
 20
333.0139947297876
 30
0.0
 10
66.52859064191125
 20
322.3125715554007
 30
0.0
 10
63.81687258795621
 20
306.0626979713703
 30
0.0
 10
60.48319872971708
 20
289.2890073769195
 30
0.0
 10
56.54092990937693
 20
272.0758230783123
 30
0.0
 10
52.11993420805322
 20
254.5243355702704
 30
0.0
 10
47.02373553032619
 20
235.6860605623883
 30
0.0
 10
41.30507857034355
 20
215.7237504093473
 30
0.0
 10
35.05757119540304
 20
194.8374456099791
 30
0.0
 10
28.74575314586991
 20
174.3196250345379
 30
0.0
 10
22.4965562275441
 20
154.3066753697824
 30
0.0
 10
16.48100390018675
 20
135.0716155972571
 30
0.0
 10
10.85177987013397
 20
116.8229921587357
 30
0.0
 10
5.737808747332151
 20
99.77621593325098
 30
0.0
 10
1.139837860002324
 20
83.91955620919128
 30
0.0
 10
-2.942622156360486
 20
69.19347356368158
 30
0.0
 10
-6.51100513915609
 20
55.54826866102777
 30
0.0
 10
-9.570196673941266
 20
42.93543353791648
 30
0.0
 10
-12.12536617522669
 20
31.30693452114153
 30
0.0
 10
-14.18408948200117
 20
20.61553745842548
 30
0.0
 10
-15.76146076302076
 20
10.81386842221904
 30
0.0
 10
-16.87109866672176
 20
1.849446377040154
 30
0.0
 10
-17.53879940437542
 20
-6.334235464474647
 30
0.0
 10
-17.79218485363293
 20
-13.80669570506182
 30
0.0
 10
-17.6411598601105
 20
-21.40148429517508
 30
0.0
 10
-16.95251816901827
 20
-29.13942253268403
 30
0.0
 10
-15.52955603708656
 20
-37.10171220732516
 30
0.0
 10
-13.43848025531985
 20
-44.72631009192723
 30
0.0
 10
-11.0531434625567
 20
-51.17050469383039
 30
0.0
 10
-8.661213550788748
 20
-56.59260884555556
 30
0.0
 10
-6.603835192675211
 20
-60.81825234754129
 30
0.0
 10
-4.56628897811806
 20
-64.54762259793911
 30
0.0
 10
-2.676121780133933
 20
-67.43601659997317
 30
0.0
 10
-0.9525095532131878
 20
-69.59732353468229
 30
0.0
 10
1.128688121671162
 20
-71.52775722056786
 30
0.0
 10
3.973795043344219
 20
-73.419501955021
 30
0.0
 10
7.931094022530393
 20
-75.0928064805092
 30
0.0
 10
12.74729235254796
 20
-76.24462969005974
 30
0.0
 10
16.25819364943176
 20
-76.34083478302777
 30
0.0
 10
18.13654158686623
 20
-76.39230493916904
 30
0.0
  0
LINE
  5
6D
330
1F
100
AcDbEntity
  8
0
  6
Continuous
 62
     7
370
    15
100
AcDbLine
 10
176.4617949993
 20
367.250912508
 30
0.0
 11
176.4617949993
 21
348.250912508
 31
0.0
  0
LINE
  5
6E
330
1F
100
AcDbEntity
  8
0
  6
Continuous
 62
     7
370
    15
100
AcDbLine
 10
226.4617949993
 20
367.250912508
 30
0.0
 11
176.4617949993
 21
367.250912508
 31
0.0
  0
LINE
  5
6F
330
1F
100
AcDbEntity
  8
0
  6
Continuous
 62
     7
370
    15
100
AcDbLine
 10
226.4617949993
 20
348.250912508
 30
0.0
 11
226.4617949993
 21
367.250912508
 31
0.0
  0
LINE
  5
70
330
1F
100
AcDbEntity
  8
0
  6
Continuous
 62
     7
370
    15
100
AcDbLine
 10
243.81212904
 20
348.250912508
 30
0.0
 11
226.4617949993
 21
348.250912508
 31
0.0
  0
SPLINE
  5
71
330
1F
100
AcDbEntity
  8
0
  6
Continuous
 62
     7
370
    15
100
AcDbSpline
210
0.0
220
0.0
230
1.0
 70
     8
 71
     3
 72
    45
 73
    41
 74
     0
 42
0.00000001
 43
0.00000001
 40
0.0
 40
0.0
 40
0.0
 40
0.0
 40
0.0175842196380793
 40
0.0341039082639506
 40
0.0498708091845678
 40
0.0651987707960214
 40
0.0803870349829673
 40
0.0957039448461008
 40
0.1113131130710178
 40
0.1270812522769547
 40
0.1426999588274998
 40
0.157928694150114
 40
0.1779588494849973
 40
0.197839569063134
 40
0.2179747145189611
 40
0.2387783943701794
 40
0.2606606079260129
 40
0.2840156564227683
 40
0.3092155036886894
 40
0.3305377387299231
 40
0.3533727573628235
 40
0.3778719064958703
 40
0.4041801460481091
 40
0.4324372121169027
 40
0.462778679458854
 40
0.4953368826076819
 40
0.5302416867396287
 40
0.5676211168252893
 40
0.607511072257809
 40
0.6494475143910781
 40
0.6927954969157463
 40
0.7369211929163736
 40
0.7811939417267735
 40
0.8156753789721874
 40
0.8495615858308366
 40
0.8825570455200834
 40
0.9143723482621725
 40
0.9447267822409717
 40
0.973352320915021
 40
0.9999999999999999
 40
0.9999999999999999
 40
0.9999999999999999
 40
0.9999999999999999
 10
269.4877136206309
 20
-101.7490874920091
 30
0.0
 10
272.4031757622337
 20
-101.647014478361
 30
0.0
 10
278.0576008928733
 20
-101.449047848887
 30
0.0
 10
286.1831006740001
 20
-99.7504129044074
 30
0.0
 10
293.6263465511972
 20
-97.06529529699104
 30
0.0
 10
300.3764285187926
 20
-93.36300302860384
 30
0.0
 10
306.4248996016339
 20
-88.7277533213094
 30
0.0
 10
311.7566364485951
 20
-83.22025942534566
 30
0.0
 10
316.3514252290012
 20
-76.97581869072
 30
0.0
 10
320.3377180078513
 20
-70.27940189178194
 30
0.0
 10
323.8281489246287
 20
-63.38697340357052
 30
0.0
 10
327.2663389166312
 20
-55.68872347669939
 30
0.0
 10
330.4298461604703
 20
-47.10909200538632
 30
0.0
 10
333.0809004761906
 20
-37.50965231972747
 30
0.0
 10
334.9079283441586
 20
-27.58891236791034
 30
0.0
 10
335.9103700630868
 20
-17.21892527499869
 30
0.0
 10
336.090224403818
 20
-6.270238580054377
 30
0.0
 10
335.451156850338
 20
5.38862460211198
 30
0.0
 10
334.113228196857
 20
16.89233680391927
 30
0.0
 10
332.2738983132189
 20
28.23553318168332
 30
0.0
 10
330.0723505484349
 20
39.39530808332078
 30
0.0
 10
327.3701809977318
 20
51.29253160318553
 30
0.0
 10
324.1672526680461
 20
63.99293508263732
 30
0.0
 10
320.4633774921985
 20
77.56204307381195
 30
0.0
 10
316.2582423083114
 20
92.06534917807632
 30
0.0
 10
311.5515182328748
 20
107.5682781805959
 30
0.0
 10
306.3426929954534
 20
124.1361472363938
 30
0.0
 10
300.6364597765844
 20
141.8201239632111
 30
0.0
 10
294.4658976346358
 20
160.5777667160222
 30
0.0
 10
287.9615108373568
 20
180.2663336945741
 30
0.0
 10
281.2909869816935
 20
200.6389708206075
 30
0.0
 10
274.6302592456576
 20
221.4217437220448
 30
0.0
 10
268.611432565372
 20
240.8671719208895
 30
0.0
 10
263.3194631703909
 20
258.760385160763
 30
0.0
 10
258.7833699004689
 20
274.9276493335161
 30
0.0
 10
254.644185320389
 20
290.7450691523249
 30
0.0
 10
250.9803368919189
 20
306.0796325272162
 30
0.0
 10
247.8998178823137
 20
320.80192422045
 30
0.0
 10
245.406541564384
 20
334.7721151603733
 30
0.0
 10
244.3307682995492
 20
343.8664553058837
 30
0.0
 10
243.8121290400348
 20
348.2509125079908
 30
0.0
  0
LINE
  5
72
330
1F
100
AcDbEntity
  8
0
  6
Continuous
 62
     7
370
    15
100
AcDbLine
 10
18.1365444594
 20
-101.749087492
 30
0.0
 11
269.4877136206
 21
-101.749087492
 31
0.0
  0
SPLINE
  5
73
330
1F
100
AcDbEntity
  8
0
  6
Continuous
 62
     7
370
    15
100
AcDbSpline
210
0.0
220
0.0
230
1.0
 70
     8
 71
     3
 72
    45
 73
    41
 74
     0
 42
0.00000001
 43
0.00000001
 40
0.0
 40
0.0
 40
0.0
 40
0.0
 40
0.0240858607164745
 40
0.0498173784540762
 40
0.0770111076810722
 40
0.1054697004560656
 40
0.1349862612152975
 40
0.1653471657094142
 40
0.1963339452133206
 40
0.2395542485916813
 40
0.2829529680051284
 40
0.3259389571117131
 40
0.3679170974116494
 40
0.4090931464081571
 40
0.4479800410280275
 40
0.4843318314910032
 40
0.5182611766261245
 40
0.5498967869177628
 40
0.5793694542733173
 40
0.6068127374422718
 40
0.6364479601133746
 40
0.663733572600597
 40
0.6889062962074927
 40
0.7122162998733614
 40
0.7339294597336461
 40
0.7543286548943968
 40
0.7770896237039983
 40
0.7989539401503132
 40
0.8204438718477621
 40
0.8420709332825244
 40
0.8572997045310339
 40
0.87291844792745
 40
0.8886866243317825
 40
0.9042958293800687
 40
0.9196127753771088
 40
0.9348010753944751
 40
0.9501290731659074
 40
0.965896011281999
 40
0.9824157388792356
 40
1.0
 40
1.0
 40
1.0
 40
1.0
 10
43.81212904003484
 20
348.2509125079908
 30
0.0
 10
43.34971444082058
 20
344.2873359159645
 30
0.0
 10
42.39329094560412
 20
336.089372910157
 30
0.0
 10
40.22719431932914
 20
323.5124621839313
 30
0.0
 10
37.56312031377374
 20
310.2962653690846
 30
0.0
 10
34.39895623915051
 20
296.5457112478389
 30
0.0
 10
30.81685906677012
 20
282.3572700409063
 30
0.0
 10
26.8750407336073
 20
267.8302396581444
 30
0.0
 10
22.09829027512694
 20
251.1797425918963
 30
0.0
 10
16.46457756494307
 20
232.5300080696386
 30
0.0
 10
10.01325573392586
 20
212.05283597348
 30
0.0
 10
3.45907367343945
 20
191.8247311887217
 30
0.0
 10
-3.073120114577443
 20
171.9768933295746
 30
0.0
 10
-9.415504081043746
 20
152.7814704770904
 30
0.0
 10
-15.40589226448719
 20
134.4513203925661
 30
0.0
 10
-20.90988327924548
 20
117.2254304949027
 30
0.0
 10
-25.9134264873242
 20
101.1011690800377
 30
0.0
 10
-30.41485974525532
 20
86.01506948686577
 30
0.0
 10
-34.41493141335889
 20
71.90183838114747
 30
0.0
 10
-38.08702278490167
 20
58.04205014062716
 30
0.0
 10
-41.35893192403633
 20
44.45374571385119
 30
0.0
 10
-44.13463126320843
 20
31.13857364020417
 30
0.0
 10
-46.22880177646493
 20
18.75980907209535
 30
0.0
 10
-47.64060052278363
 20
7.213046422115843
 30
0.0
 10
-48.36837731729965
 20
-3.606034407574732
 30
0.0
 10
-48.4124785829168
 20
-14.35985631329101
 30
0.0
 10
-47.6276668088475
 20
-25.11668407508749
 30
0.0
 10
-45.83190291343431
 20
-35.93673428701077
 30
0.0
 10
-43.07054854172437
 20
-46.35672652940065
 30
0.0
 10
-39.74997860366136
 20
-55.44720666507774
 30
0.0
 10
-36.20389412020586
 20
-63.38694950655965
 30
0.0
 10
-32.71345903092665
 20
-70.2794084346589
 30
0.0
 10
-28.72716738765968
 20
-76.97581694911221
 30
0.0
 10
-24.13237830614345
 20
-83.22025988044574
 30
0.0
 10
-18.80064153798439
 20
-88.72775320151865
 30
0.0
 10
-12.75217043429866
 20
-93.36300306088008
 30
0.0
 10
-6.002088472353062
 20
-97.06529528805008
 30
0.0
 10
1.44115740641737
 20
-99.75041290694375
 30
0.0
 10
9.56665718710098
 20
-101.4490478481919
 30
0.0
 10
15.22108231780367
 20
-101.6470144781245
 30
0.0
 10
18.1365444594388
 20
-101.7490874920091
 30
0.0
  0
LINE
  5
74
330
1F
100
AcDbEntity
  8
0
  6
Continuous
 62
     7
370
    15
100
AcDbLine
 10
61.1624630808
 20
348.250912508
 30
0.0
 11
43.81212904
 21
348.250912508
 31
0.0
  0
LINE
  5
75
330
1F
100
AcDbEntity
  8
0
  6
Continuous
 62
     7
370
    15
100
AcDbLine
 10
61.1624630808
 20
367.250912508
 30
0.0
 11
61.1624630808
 21
348.250912508
 31
0.0
  0
LINE
  5
76
330
1F
100
AcDbEntity
  8
0
  6
Continuous
 62
     7
370
    15
100
AcDbLine
 10
111.1624630808
 20
367.250912508
 30
0.0
 11
61.1624630808
 21
367.250912508
 31
0.0
  0
LINE
  5
77
330
1F
100
AcDbEntity
  8
0
  6
Continuous
 62
     7
370
    15
100
AcDbLine
 10
111.1624630808
 20
348.250912508
 30
0.0
 11
111.1624630808
 21
367.250912508
 31
0.0
  0
LINE
  5
78
330
1F
100
AcDbEntity
  8
0
  6
Continuous
 62
     7
370
    15
100
AcDbLine
 10
134.31212904
 20
348.250912508
 30
0.0
 11
111.1624630808
 21
348.250912508
 31
0.0
  0
LINE
  5
79
330
1F
100
AcDbEntity
  8
0
  6
Continuous
 62
     7
370
    15
100
AcDbLine
 10
134.31212904
 20
348.250912508
 30
0.0
 11
134.31212904
 21
123.250912508
 31
0.0
  0
LINE
  5
7A
330
1F
100
AcDbEntity
  8
0
  6
Continuous
 62
     7
370
    15
100
AcDbLine
 10
134.31212904
 20
123.250912508
 30
0.0
 11
153.31212904
 21
123.250912508
 31
0.0
  0
LINE
  5
7B
330
1F
100
AcDbEntity
  8
0
  6
Continuous
 62
     7
370
    15
100
AcDbLine
 10
153.31212904
 20
123.250912508
 30
0.0
 11
153.31212904
 21
348.250912508
 31
0.0
  0
LINE
  5
7C
330
1F
100
AcDbEntity
  8
0
  6
Continuous
 62
     7
370
    15
100
AcDbLine
 10
176.4617949993
 20
348.250912508
 30
0.0
 11
153.31212904
 21
348.250912508
 31
0.0
  0
LINE
  5
7D
330
1F
100
AcDbEntity
  8
0
  6
Continuous
 62
     7
370
    15
100
AcDbLine
 10
166.5753212051
 20
338.250912508
 30
0.0
 11
166.5753212051
 21
-76.2839500068
 31
0.0
  0
LINE
  5
7E
330
1F
100
AcDbEntity
  8
0
  6
Continuous
 62
     7
370
    15
100
AcDbLine
 10
166.5753212051
 20
-76.2839500068
 30
0.0
 11
269.4877136206
 21
-76.3923049392
 31
0.0
  0
SPLINE
  5
7F
330
1F
100
AcDbEntity
  8
0
  6
Continuous
 62
     7
370
    15
100
AcDbSpline
210
0.0
220
0.0
230
1.0
 70
     8
 71
     3
 72
    45
 73
    41
 74
     0
 42
0.00000001
 43
0.00000001
 40
0.0
 40
0.0
 40
0.0
 40
0.0
 40
0.012042388304773
 40
0.0222988543898392
 40
0.0313127048232043
 40
0.0397164156865965
 40
0.0481385519494751
 40
0.0571521544516642
 40
0.0679226924511508
 40
0.0807062121265396
 40
0.094774943684048
 40
0.1086790279947584
 40
0.1240207072796631
 40
0.1389421829603818
 40
0.1538868809660517
 40
0.1693178199835669
 40
0.1856854572960193
 40
0.2033794431974288
 40
0.2227485139399087
 40
0.2440833769102923
 40
0.2651101855575007
 40
0.2880650658543998
 40
0.3130795742968432
 40
0.3402780468252489
 40
0.369778715010498
 40
0.4016954967504464
 40
0.4361451315067685
 40
0.4732364137274114
 40
0.5130874965958725
 40
0.5558305863607346
 40
0.601171432372851
 40
0.6484662346018487
 40
0.6970033489679495
 40
0.7461269918722062
 40
0.7911207313000421
 40
0.8355903975171586
 40
0.8790882924279834
 40
0.9212057211036061
 40
0.9615935390114009
 40
1.0
 40
1.0
 40
1.0
 40
1.0
 10
269.4877136206309
 20
-76.39230493916865
 30
0.0
 10
271.2842333468827
 20
-76.33325094946458
 30
0.0
 10
274.6108435483063
 20
-76.22390085343523
 30
0.0
 10
279.2039117419678
 20
-75.28300173257068
 30
0.0
 10
283.1004030214751
 20
-73.8896491703771
 30
0.0
 10
286.4916382401732
 20
-72.03113309489196
 30
0.0
 10
289.5561458707461
 20
-69.67546953273634
 30
0.0
 10
292.4811841928055
 20
-66.63578922275443
 30
0.0
 10
295.3358075935473
 20
-62.69642795268321
 30
0.0
 10
298.2005944315882
 20
-57.87058596483041
 30
0.0
 10
300.9386619068474
 20
-52.44503212727608
 30
0.0
 10
303.5757453976674
 20
-46.55030616014627
 30
0.0
 10
305.8891985991439
 20
-40.38204947543012
 30
0.0
 10
307.800233329312
 20
-33.91512055955737
 30
0.0
 10
309.2237113687472
 20
-27.30962639554896
 30
0.0
 10
310.1769340589985
 20
-20.40255545400193
 30
0.0
 10
310.6575912422795
 20
-13.03631814397349
 30
0.0
 10
310.6443882583417
 20
-5.068097758568701
 30
0.0
 10
310.1074483082743
 20
3.623003874374087
 30
0.0
 10
309.0637812799344
 20
12.7670440945572
 30
0.0
 10
307.5531968762475
 20
22.38554448475832
 30
0.0
 10
305.6089391366747
 20
32.48443571853432
 30
0.0
 10
303.1751398285497
 20
43.4205749478348
 30
0.0
 10
300.2423786695396
 20
55.24109581006368
 30
0.0
 10
296.8085310680838
 20
67.99417623493493
 30
0.0
 10
292.8711647337246
 20
81.72868520969914
 30
0.0
 10
288.4291765571411
 20
96.49381266427173
 30
0.0
 10
283.4837435928963
 20
112.3412541602791
 30
0.0
 10
278.0361287762194
 20
129.3261070066246
 30
0.0
 10
272.098575274757
 20
147.4444662616602
 30
0.0
 10
265.7692133924345
 20
166.6016836537664
 30
0.0
 10
259.1990232384828
 20
186.5887573380493
 30
0.0
 10
252.5583773336192
 20
207.1459427372955
 30
0.0
 10
246.1983411625912
 20
227.4327851834215
 30
0.0
 10
240.2556747508045
 20
247.2139410803618
 30
0.0
 10
234.8440359768693
 20
266.276929224626
 30
0.0
 10
229.9090515464249
 20
285.0273307327103
 30
0.0
 10
225.6082680658241
 20
303.3075383176646
 30
0.0
 10
221.9742987618893
 20
320.9651686775722
 30
0.0
 10
220.2736702152306
 20
332.5864069192605
 30
0.0
 10
219.4447379012585
 20
338.2509125079911
 30
0.0
  0
LINE
  5
80
330
1F
100
AcDbEntity
  8
0
  6
Continuous
 62
     7
370
    15
100
AcDbLine
 10
219.4447379013
 20
338.250912508
 30
0.0
 11
166.5753212051
 21
338.250912508
 31
0.0
  0
ENDSEC
  0
SECTION
  2
OBJECTS
  0
DICTIONARY
  5
C
330
0
100
AcDbDictionary
281
     1
  3
ACAD_GROUP
350
D
  3
ACAD_LAYOUT
350
1A
  3
ACAD_MLEADERSTYLE
350
83
  3
ACAD_MLINESTYLE
350
17
  3
ACAD_PLOTSETTINGS
350
19
  3
ACAD_PLOTSTYLENAME
350
E
  3
ACAD_VISUALSTYLE
350
2A
  3
AcDbVariableDictionary
350
81
  0
DICTIONARY
  5
D
102
{ACAD_REACTORS
330
C
102
}
330
C
100
AcDbDictionary
281
     1
  0
DICTIONARY
  5
1A
102
{ACAD_REACTORS
330
C
102
}
330
C
100
AcDbDictionary
281
     1
  3
Layout1
350
1E
  3
Layout2
350
26
  3
Model
350
22
  0
DICTIONARY
  5
83
102
{ACAD_REACTORS
330
C
102
}
330
C
100
AcDbDictionary
281
     1
  0
DICTIONARY
  5
17
102
{ACAD_REACTORS
330
C
102
}
330
C
100
AcDbDictionary
281
     1
  3
Standard
350
18
  0
DICTIONARY
  5
19
102
{ACAD_REACTORS
330
C
102
}
330
C
100
AcDbDictionary
281
     1
  0
ACDBDICTIONARYWDFLT
  5
E
102
{ACAD_REACTORS
330
C
102
}
330
C
100
AcDbDictionary
281
     1
  3
Normal
350
F
100
AcDbDictionaryWithDefault
340
F
  0
DICTIONARY
  5
2A
102
{ACAD_REACTORS
330
C
102
}
330
C
100
AcDbDictionary
281
     1
  3
2dWireframe
350
2F
  3
3D Hidden
350
31
  3
3dWireframe
350
30
  3
Basic
350
32
  3
Brighten
350
36
  3
ColorChange
350
3A
  3
Conceptual
350
34
  3
Dim
350
35
  3
Facepattern
350
39
  3
Flat
350
2B
  3
FlatWithEdges
350
2C
  3
Gouraud
350
2D
  3
GouraudWithEdges
350
2E
  3
Linepattern
350
38
  3
Realistic
350
33
  3
Thicken
350
37
  0
DICTIONARY
  5
81
102
{ACAD_REACTORS
330
C
102
}
330
C
100
AcDbDictionary
281
     1
  3
DIMASSOC
350
86
  3
HIDETEXT
350
87
  3
PSOLHEIGHT
350
85
  3
PSOLWIDTH
350
84
  0
LAYOUT
  5
1E
102
{ACAD_REACTORS
330
1A
102
}
330
1A
100
AcDbPlotSettings
  1

  2
none_device
  4

  6

 40
0.0
 41
0.0
 42
0.0
 43
0.0
 44
0.0
 45
0.0
 46
0.0
 47
0.0
 48
0.0
 49
0.0
140
0.0
141
0.0
142
1.0
143
1.0
 70
   688
 72
     0
 73
     0
 74
     5
  7

 75
    16
147
1.0
148
0.0
149
0.0
100
AcDbLayout
  1
Layout1
 70
     1
 71
     1
 10
0.0
 20
0.0
 11
420.0
 21
297.0
 12
0.0
 22
0.0
 32
0.0
 14
1.0000000000E+20
 24
1.0000000000E+20
 34
1.0000000000E+20
 15
-1.0000000000E+20
 25
-1.0000000000E+20
 35
-1.0000000000E+20
146
0.0
 13
0.0
 23
0.0
 33
0.0
 16
1.0
 26
0.0
 36
0.0
 17
0.0
 27
1.0
 37
0.0
 76
     0
330
1B
  0
LAYOUT
  5
26
102
{ACAD_REACTORS
330
1A
102
}
330
1A
100
AcDbPlotSettings
  1

  2
none_device
  4

  6

 40
0.0
 41
0.0
 42
0.0
 43
0.0
 44
0.0
 45
0.0
 46
0.0
 47
0.0
 48
0.0
 49
0.0
140
0.0
141
0.0
142
1.0
143
1.0
 70
   688
 72
     0
 73
     0
 74
     5
  7

 75
    16
147
1.0
148
0.0
149
0.0
100
AcDbLayout
  1
Layout2
 70
     1
 71
     2
 10
0.0
 20
0.0
 11
0.0
 21
0.0
 12
0.0
 22
0.0
 32
0.0
 14
0.0
 24
0.0
 34
0.0
 15
0.0
 25
0.0
 35
0.0
146
0.0
 13
0.0
 23
0.0
 33
0.0
 16
1.0
 26
0.0
 36
0.0
 17
0.0
 27
1.0
 37
0.0
 76
     0
330
23
  0
LAYOUT
  5
22
102
{ACAD_REACTORS
330
1A
102
}
330
1A
100
AcDbPlotSettings
  1

  2
none_device
  4

  6

 40
0.0
 41
0.0
 42
0.0
 43
0.0
 44
0.0
 45
0.0
 46
0.0
 47
0.0
 48
0.0
 49
0.0
140
0.0
141
0.0
142
1.0
143
1.0
 70
  1712
 72
     0
 73
     0
 74
     0
  7

 75
     0
147
1.0
148
0.0
149
0.0
100
AcDbLayout
  1
Model
 70
     1
 71
     0
 10
0.0
 20
0.0
 11
841.0
 21
594.0
 12
0.0
 22
0.0
 32
0.0
 14
0.0
 24
0.0
 34
0.0
 15
841.0
 25
594.0
 35
0.0
146
0.0
 13
0.0
 23
0.0
 33
0.0
 16
1.0
 26
0.0
 36
0.0
 17
0.0
 27
1.0
 37
0.0
 76
     0
330
1F
331
29
  0
MLINESTYLE
  5
18
102
{ACAD_REACTORS
330
17
102
}
330
17
100
AcDbMlineStyle
  2
Standard
 70
     0
  3

 62
   256
 51
90.0
 52
90.0
 71
     2
 49
0.5
 62
   256
  6
BYLAYER
 49
-0.5
 62
   256
  6
BYLAYER
  0
ACDBPLACEHOLDER
  5
F
102
{ACAD_REACTORS
330
E
102
}
330
E
  0
VISUALSTYLE
  5
2F
102
{ACAD_REACTORS
330
2A
102
}
330
2A
100
AcDbVisualStyle
  2
2dWireframe
 70
     4
 71
     0
 72
     2
 73
     0
 90
        0
 40
-0.6
 41
-30.0
 62
     5
 63
     7
 74
     1
 91
        4
 64
     7
 65
   257
 75
     1
175
     1
 42
1.0
 92
        0
 66
   257
 43
1.0
 76
     1
 77
     6
 78
     2
 67
     7
 79
     5
170
     0
171
     0
290
     0
174
     0
 93
        1
 44
0.0
173
     0
291
     0
 45
0.0
1001
ACAD
1000
AcDbSavedByObjectVersion
1070
     0
  0
VISUALSTYLE
  5
31
102
{ACAD_REACTORS
330
2A
102
}
330
2A
100
AcDbVisualStyle
  2
3D Hidden
 70
     6
 71
     1
 72
     2
 73
     2
 90
        0
 40
-0.6
 41
-30.0
 62
     5
 63
     7
 74
     2
 91
        2
 64
     7
 65
   257
 75
     2
175
     1
 42
40.0
 92
        0
 66
   257
 43
1.0
 76
     1
 77
     6
 78
     2
 67
     7
 79
     3
170
     0
171
     0
290
     0
174
     0
 93
        1
 44
0.0
173
     0
291
     0
 45
0.0
1001
ACAD
1000
AcDbSavedByObjectVersion
1070
     0
  0
VISUALSTYLE
  5
30
102
{ACAD_REACTORS
330
2A
102
}
330
2A
100
AcDbVisualStyle
  2
3dWireframe
 70
     5
 71
     0
 72
     2
 73
     0
 90
        0
 40
-0.6
 41
-30.0
 62
     5
 63
     7
 74
     1
 91
        4
 64
     7
 65
   257
 75
     1
175
     1
 42
1.0
 92
        0
 66
   257
 43
1.0
 76
     1
 77
     6
 78
     2
 67
     7
 79
     5
170
     0
171
     0
290
     0
174
     0
 93
        1
 44
0.0
173
     0
291
     0
 45
0.0
1001
ACAD
1000
AcDbSavedByObjectVersion
1070
     0
  0
VISUALSTYLE
  5
32
102
{ACAD_REACTORS
330
2A
102
}
330
2A
100
AcDbVisualStyle
  2
Basic
 70
     7
 71
     1
 72
     0
 73
     1
 90
        0
 40
-0.6
 41
-30.0
 62
     5
 63
     7
 74
     0
 91
        4
 64
     7
 65
   257
 75
     1
175
     1
 42
1.0
 92
        8
 66
     7
 43
1.0
 76
     1
 77
     6
 78
     2
 67
     7
 79
     5
170
     0
171
     0
290
     0
174
     0
 93
        1
 44
0.0
173
     0
291
     1
 45
0.0
1001
ACAD
1000
AcDbSavedByObjectVersion
1070
     0
  0
VISUALSTYLE
  5
36
102
{ACAD_REACTORS
330
2A
102
}
330
2A
100
AcDbVisualStyle
  2
Brighten
 70
    12
 71
     2
 72
     2
 73
     0
 90
        0
 40
-0.6
 41
-30.0
 62
     5
 63
     7
 74
     1
 91
        4
 64
     7
 65
   257
 75
     1
175
     1
 42
1.0
 92
        8
 66
     7
 43
1.0
 76
     1
 77
     6
 78
     2
 67
     7
 79
     5
170
     0
171
     0
290
     0
174
     0
 93
        1
 44
50.0
173
     0
291
     1
 45
0.0
1001
ACAD
1000
AcDbSavedByObjectVersion
1070
     0
  0
VISUALSTYLE
  5
3A
102
{ACAD_REACTORS
330
2A
102
}
330
2A
100
AcDbVisualStyle
  2
ColorChange
 70
    16
 71
     2
 72
     2
 73
     3
 90
        0
 40
-0.6
 41
-30.0
 62
     5
 63
     8
 74
     1
 91
        4
 64
     7
 65
   257
 75
     1
175
     1
 42
1.0
 92
        8
 66
     8
 43
1.0
 76
     1
 77
     6
 78
     2
 67
     7
 79
     5
170
     0
171
     0
290
     0
174
     0
 93
        1
 44
0.0
173
     0
291
     1
 45
0.0
1001
ACAD
1000
AcDbSavedByObjectVersion
1070
     0
  0
VISUALSTYLE
  5
34
102
{ACAD_REACTORS
330
2A
102
}
330
2A
100
AcDbVisualStyle
  2
Conceptual
 70
     9
 71
     3
 72
     2
 73
     0
 90
        0
 40
-0.6
 41
-30.0
 62
     5
 63
     7
 74
     2
 91
        2
 64
     7
 65
   257
 75
     1
175
     1
 42
40.0
 92
        8
 66
     7
 43
1.0
 76
     1
 77
     6
 78
     2
 67
     7
 79
     3
170
     0
171
     0
290
     0
174
     0
 93
        1
 44
0.0
173
     0
291
     0
 45
0.0
1001
ACAD
1000
AcDbSavedByObjectVersion
1070
     0
  0
VISUALSTYLE
  5
35
102
{ACAD_REACTORS
330
2A
102
}
330
2A
100
AcDbVisualStyle
  2
Dim
 70
    11
 71
     2
 72
     2
 73
     0
 90
        0
 40
-0.6
 41
-30.0
 62
     5
 63
     7
 74
     1
 91
        4
 64
     7
 65
   257
 75
     1
175
     1
 42
1.0
 92
        8
 66
     7
 43
1.0
 76
     1
 77
     6
 78
     2
 67
     7
 79
     5
170
     0
171
     0
290
     0
174
     0
 93
        1
 44
-50.0
173
     0
291
     1
 45
0.0
1001
ACAD
1000
AcDbSavedByObjectVersion
1070
     0
  0
VISUALSTYLE
  5
39
102
{ACAD_REACTORS
330
2A
102
}
330
2A
100
AcDbVisualStyle
  2
Facepattern
 70
    15
 71
     2
 72
     2
 73
     0
 90
        0
 40
-0.6
 41
-30.0
 62
     5
 63
     7
 74
     1
 91
        4
 64
     7
 65
   257
 75
     1
175
     1
 42
1.0
 92
        8
 66
     7
 43
1.0
 76
     1
 77
     6
 78
     2
 67
     7
 79
     5
170
     0
171
     0
290
     0
174
     0
 93
        1
 44
0.0
173
     0
291
     1
 45
0.0
1001
ACAD
1000
AcDbSavedByObjectVersion
1070
     0
  0
VISUALSTYLE
  5
2B
102
{ACAD_REACTORS
330
2A
102
}
330
2A
100
AcDbVisualStyle
  2
Flat
 70
     0
 71
     2
 72
     1
 73
     1
 90
        2
 40
-0.6
 41
30.0
 62
     5
 63
     7
 74
     0
 91
        4
 64
     7
 65
   257
 75
     1
175
     1
 42
1.0
 92
        8
 66
     7
 43
1.0
 76
     1
 77
     6
 78
     2
 67
     7
 79
     5
170
     0
171
     0
290
     0
174
     0
 93
       13
 44
0.0
173
     0
291
     1
 45
0.0
1001
ACAD
1000
AcDbSavedByObjectVersion
1070
     0
  0
VISUALSTYLE
  5
2C
102
{ACAD_REACTORS
330
2A
102
}
330
2A
100
AcDbVisualStyle
  2
FlatWithEdges
 70
     1
 71
     2
 72
     1
 73
     1
 90
        2
 40
-0.6
 41
30.0
 62
     5
 63
     7
 74
     1
 91
        4
 64
     7
 65
   257
 75
     1
175
     1
 42
1.0
 92
        0
 66
   257
 43
1.0
 76
     1
 77
     6
 78
     2
 67
     7
 79
     5
170
     0
171
     0
290
     0
174
     0
 93
       13
 44
0.0
173
     0
291
     1
 45
0.0
1001
ACAD
1000
AcDbSavedByObjectVersion
1070
     0
  0
VISUALSTYLE
  5
2D
102
{ACAD_REACTORS
330
2A
102
}
330
2A
100
AcDbVisualStyle
  2
Gouraud
 70
     2
 71
     2
 72
     2
 73
     1
 90
        2
 40
-0.6
 41
30.0
 62
     5
 63
     7
 74
     0
 91
        4
 64
     7
 65
   257
 75
     1
175
     1
 42
1.0
 92
        0
 66
     7
 43
1.0
 76
     1
 77
     6
 78
     2
 67
     7
 79
     5
170
     0
171
     0
290
     0
174
     0
 93
       13
 44
0.0
173
     0
291
     1
 45
0.0
1001
ACAD
1000
AcDbSavedByObjectVersion
1070
     0
  0
VISUALSTYLE
  5
2E
102
{ACAD_REACTORS
330
2A
102
}
330
2A
100
AcDbVisualStyle
  2
GouraudWithEdges
 70
     3
 71
     2
 72
     2
 73
     1
 90
        2
 40
-0.6
 41
30.0
 62
     5
 63
     7
 74
     1
 91
        4
 64
     7
 65
   257
 75
     1
175
     1
 42
1.0
 92
        0
 66
   257
 43
1.0
 76
     1
 77
     6
 78
     2
 67
     7
 79
     5
170
     0
171
     0
290
     0
174
     0
 93
       13
 44
0.0
173
     0
291
     1
 45
0.0
1001
ACAD
1000
AcDbSavedByObjectVersion
1070
     0
  0
VISUALSTYLE
  5
38
102
{ACAD_REACTORS
330
2A
102
}
330
2A
100
AcDbVisualStyle
  2
Linepattern
 70
    14
 71
     2
 72
     2
 73
     0
 90
        0
 40
-0.6
 41
-30.0
 62
     5
 63
     7
 74
     1
 91
        4
 64
     7
 65
   257
 75
     7
175
     7
 42
1.0
 92
        8
 66
     7
 43
1.0
 76
     1
 77
     6
 78
     2
 67
     7
 79
     5
170
     0
171
     0
290
     0
174
     0
 93
        1
 44
0.0
173
     0
291
     1
 45
0.0
1001
ACAD
1000
AcDbSavedByObjectVersion
1070
     0
  0
VISUALSTYLE
  5
33
102
{ACAD_REACTORS
330
2A
102
}
330
2A
100
AcDbVisualStyle
  2
Realistic
 70
     8
 71
     2
 72
     2
 73
     0
 90
        0
 40
-0.6
 41
-30.0
 62
     5
 63
     7
 74
     1
 91
        0
 64
     7
 65
   257
 75
     1
175
     1
 42
1.0
 92
        8
 66
     8
 43
1.0
 76
     1
 77
     6
 78
     2
 67
     7
 79
     5
170
     0
171
     0
290
     0
174
     0
 93
       13
 44
0.0
173
     0
291
     0
 45
0.0
1001
ACAD
1000
AcDbSavedByObjectVersion
1070
     0
  0
VISUALSTYLE
  5
37
102
{ACAD_REACTORS
330
2A
102
}
330
2A
100
AcDbVisualStyle
  2
Thicken
 70
    13
 71
     2
 72
     2
 73
     0
 90
        0
 40
-0.6
 41
-30.0
 62
     5
 63
     7
 74
     1
 91
        4
 64
     7
 65
   257
 75
     1
175
     1
 42
1.0
 92
       12
 66
     7
 43
1.0
 76
     1
 77
     6
 78
     2
 67
     7
 79
     5
170
     0
171
     0
290
     0
174
     0
 93
        1
 44
0.0
173
     0
291
     1
 45
0.0
1001
ACAD
1000
AcDbSavedByObjectVersion
1070
     0
  0
DICTIONARYVAR
  5
86
102
{ACAD_REACTORS
330
81
102
}
330
81
100
DictionaryVariables
280
     0
  1
2
  0
DICTIONARYVAR
  5
87
102
{ACAD_REACTORS
330
81
102
}
330
81
100
DictionaryVariables
280
     0
  1
1
  0
DICTIONARYVAR
  5
85
102
{ACAD_REACTORS
330
81
102
}
330
81
100
DictionaryVariables
280
     0
  1
80.000000
  0
DICTIONARYVAR
  5
84
102
{ACAD_REACTORS
330
81
102
}
330
81
100
DictionaryVariables
280
     0
  1
5.000000
  0
ENDSEC
  0
EOF
